<?xml version="1.0" encoding="UTF-8" standalone="no"?>
<!-- Generator: Adobe Illustrator 16.0.4, SVG Export Plug-In . SVG Version: 6.00 Build 0)  -->

<svg
   xmlns:dc="http://purl.org/dc/elements/1.1/"
   xmlns:cc="http://creativecommons.org/ns#"
   xmlns:rdf="http://www.w3.org/1999/02/22-rdf-syntax-ns#"
   xmlns:svg="http://www.w3.org/2000/svg"
   xmlns="http://www.w3.org/2000/svg"
   xmlns:sodipodi="http://sodipodi.sourceforge.net/DTD/sodipodi-0.dtd"
   xmlns:inkscape="http://www.inkscape.org/namespaces/inkscape"
   version="1.1"
   id="Capa_1"
   x="0px"
   y="0px"
   width="472"
   height="472"
   viewBox="0 0 472 471.99998"
   enable-background="new 0 0 307.643 472"
   xml:space="preserve"
   inkscape:version="0.48.4 r9939"
   sodipodi:docname="speedy.svg"><metadata
     id="metadata2998"><rdf:RDF><cc:Work
         rdf:about=""><dc:format>image/svg+xml</dc:format><dc:type
           rdf:resource="http://purl.org/dc/dcmitype/StillImage" /><dc:title /></cc:Work></rdf:RDF></metadata><defs
     id="defs2996" /><sodipodi:namedview
     pagecolor="#ffffff"
     bordercolor="#666666"
     borderopacity="1"
     objecttolerance="10"
     gridtolerance="10"
     guidetolerance="10"
     inkscape:pageopacity="0"
     inkscape:pageshadow="2"
     inkscape:window-width="1486"
     inkscape:window-height="789"
     id="namedview2994"
     showgrid="true"
     units="px"
     fit-margin-top="0"
     fit-margin-left="0"
     fit-margin-right="0"
     fit-margin-bottom="0"
     inkscape:zoom="0.73539105"
     inkscape:cx="149.83471"
     inkscape:cy="214.80354"
     inkscape:window-x="0"
     inkscape:window-y="35"
     inkscape:window-maximized="0"
     inkscape:current-layer="layer3" /><g
     inkscape:groupmode="layer"
     id="layer3"
     inkscape:label="Blur 2"
     style="opacity:0.5;display:inline"><g
       id="g3014"><path
         d="m 144.45062,75.423067 c 10.334,0 19.167,-3.667 26.5,-11 7.334,-7.334 11,-16.167 11,-26.5 0,-10.335 -3.666,-19.168 -11,-26.5 -7.332,-7.3330004 -16.167,-11.00000038 -26.5,-11.00000038 -10.333,0 -19.333,3.66699998 -27,11.00000038 -7.667,7.333 -11.5,16.167 -11.5,26.5 0,10.333 3.833,19.167 11.5,26.5 7.667,7.333 16.667,11 27,11 z"
         id="path3887"
         inkscape:connector-curvature="0"
         style="opacity:0.5;display:inline" /><path
         d="m 79.950622,81.423067 c 2,-7.336 -0.667,-11.67 -8,-13 l -31,-8 c -7.333,-1.333 -12,1.334 -14,8 L 0.95062208,176.42306 c -1.99999998,6.667 0.66700002,10.667 8.00000002,12 l 30.9999999,8 c 7.333,1.333 12,-1.333 14,-8 l 26,-106.999993 z"
         id="path3889"
         inkscape:connector-curvature="0"
         style="opacity:0.5;display:inline" /><path
         d="m 13.950622,440.42306 v 5 c 0,7.333 2.5,13.667 7.5,19 5,5.333 11.167,8 18.5,8 13.333,0 22,-6.333 26,-19 l 45.999998,-185 44,184 c 1.334,5.333 4.334,10 9,14 4.668,4 10.334,6 17,6 7.334,0 13.5,-2.667 18.5,-8 5,-5.333 7.5,-11.667 7.5,-19 v -5 l -60,-245 5,-21 4,17 c 0.668,3.333 2.168,6 4.5,8 2.334,2 4.5,3 6.5,3 l 3,1 62,15 h 3 c 5.334,0 9.834,-1.667 13.5,-5 3.668,-3.333 5.5,-7.333 5.5,-12 0,-9.333 -4.666,-15.333 -14,-18 l -54,-13 -15,-58 c -2,-9.335 -6.166,-16.667995 -12.5,-21.999995 -6.333,-5.333 -12.167,-8.332998 -17.5,-8.999998 l -9,-1 c -8.667,0 -16.333,2.5 -23,7.499998 -6.667,5 -10.999998,10.167 -12.999998,15.499995 l -2,8 -81,329 z"
         id="path3893"
         inkscape:connector-curvature="0"
         style="opacity:0.5;display:inline" /></g></g><g
     inkscape:groupmode="layer"
     id="layer2"
     inkscape:label="Blur 1"
     style="opacity:0.5;display:inline"><g
       id="g3009"
       transform="translate(-2.7196359,0)"><path
         d="m 255.95592,75.423067 c 10.334,0 19.167,-3.667 26.5,-11 7.334,-7.334 11,-16.167 11,-26.5 0,-10.335 -3.666,-19.168 -11,-26.5 -7.332,-7.3330004 -16.167,-11.00000038 -26.5,-11.00000038 -10.333,0 -19.333,3.66699998 -27,11.00000038 -7.667,7.333 -11.5,16.167 -11.5,26.5 0,10.333 3.833,19.167 11.5,26.5 7.667,7.333 16.667,11 27,11 z"
         id="path3874"
         inkscape:connector-curvature="0" /><path
         d="m 191.45592,81.423067 c 2,-7.336 -0.667,-11.67 -8,-13 l -31,-8 c -7.333,-1.333 -12,1.334 -14,8 l -26,107.999993 c -2,6.667 0.667,10.667 8,12 l 31,8 c 7.333,1.333 12,-1.333 14,-8 l 26,-106.999993 z"
         id="path3876"
         inkscape:connector-curvature="0" /><path
         d="m 125.45592,440.42306 v 5 c 0,7.333 2.5,13.667 7.5,19 5,5.333 11.167,8 18.5,8 13.333,0 22,-6.333 26,-19 l 46,-185 44,184 c 1.334,5.333 4.334,10 9,14 4.668,4 10.334,6 17,6 7.334,0 13.5,-2.667 18.5,-8 5,-5.333 7.5,-11.667 7.5,-19 v -5 l -60,-245 5,-21 4,17 c 0.668,3.333 2.168,6 4.5,8 2.334,2 4.5,3 6.5,3 l 3,1 62,15 h 3 c 5.334,0 9.834,-1.667 13.5,-5 3.668,-3.333 5.5,-7.333 5.5,-12 0,-9.333 -4.666,-15.333 -14,-18 l -54,-13 -15,-58 c -2,-9.335 -6.166,-16.667995 -12.5,-21.999995 -6.333,-5.333 -12.167,-8.332998 -17.5,-8.999998 l -9,-1 c -8.667,0 -16.333,2.5 -23,7.499998 -6.667,5 -11,10.167 -13,15.499995 l -2,8 -81,329 z"
         id="path3880"
         inkscape:connector-curvature="0" /></g></g><g
     inkscape:groupmode="layer"
     id="layer1"
     inkscape:label="Foreground"
     style="display:inline"><g
       id="g3004"
       transform="translate(54.392829,0)"><path
         inkscape:connector-curvature="0"
         id="path2986"
         d="m 307.62911,75.423067 c 10.334,0 19.167,-3.667 26.5,-11 7.334,-7.334 11,-16.167 11,-26.5 0,-10.335 -3.666,-19.168 -11,-26.5 -7.332,-7.3330004 -16.167,-11.00000038 -26.5,-11.00000038 -10.333,0 -19.333,3.66699998 -27,11.00000038 -7.667,7.333 -11.5,16.167 -11.5,26.5 0,10.333 3.833,19.167 11.5,26.5 7.667,7.333 16.667,11 27,11 z" /><path
         inkscape:connector-curvature="0"
         id="path2988"
         d="m 243.12911,81.423067 c 2,-7.336 -0.667,-11.67 -8,-13 l -31,-8 c -7.333,-1.333 -12,1.334 -14,8 l -26,107.999993 c -2,6.667 0.667,10.667 8,12 l 31,8 c 7.333,1.333 12,-1.333 14,-8 l 26,-106.999993 z" /><path
         inkscape:connector-curvature="0"
         id="path2992"
         d="m 177.12911,440.42306 v 5 c 0,7.333 2.5,13.667 7.5,19 5,5.333 11.167,8 18.5,8 13.333,0 22,-6.333 26,-19 l 46,-185 44,184 c 1.334,5.333 4.334,10 9,14 4.668,4 10.334,6 17,6 7.334,0 13.5,-2.667 18.5,-8 5,-5.333 7.5,-11.667 7.5,-19 v -5 l -60,-245 5,-21 4,17 c 0.668,3.333 2.168,6 4.5,8 2.334,2 4.5,3 6.5,3 l 3,1 62,15 h 3 c 5.334,0 9.834,-1.667 13.5,-5 3.668,-3.333 5.5,-7.333 5.5,-12 0,-9.333 -4.666,-15.333 -14,-18 l -54,-13 -15,-58 c -2,-9.335 -6.166,-16.667995 -12.5,-21.999995 -6.333,-5.333 -12.167,-8.332998 -17.5,-8.999998 l -9,-1 c -8.667,0 -16.333,2.5 -23,7.499998 -6.667,5 -11,10.167 -13,15.499995 l -2,8 -81,329 z" /></g></g></svg>