<?xml version="1.0" encoding="UTF-8" standalone="no"?>
<!-- Created with Inkscape (http://www.inkscape.org/) -->

<svg
   xmlns:dc="http://purl.org/dc/elements/1.1/"
   xmlns:cc="http://creativecommons.org/ns#"
   xmlns:rdf="http://www.w3.org/1999/02/22-rdf-syntax-ns#"
   xmlns:svg="http://www.w3.org/2000/svg"
   xmlns="http://www.w3.org/2000/svg"
   xmlns:sodipodi="http://sodipodi.sourceforge.net/DTD/sodipodi-0.dtd"
   xmlns:inkscape="http://www.inkscape.org/namespaces/inkscape"
   width="20.00004"
   height="19.99987"
   id="svg26469"
   version="1.1"
   inkscape:version="0.48.4 r9939"
   sodipodi:docname="alarm.svg">
  <defs
     id="defs26471" />
  <sodipodi:namedview
     id="base"
     pagecolor="#ffffff"
     bordercolor="#666666"
     borderopacity="1.0"
     inkscape:pageopacity="0.0"
     inkscape:pageshadow="2"
     inkscape:zoom="5.6"
     inkscape:cx="28.823362"
     inkscape:cy="1.2237902"
     inkscape:document-units="px"
     inkscape:current-layer="layer1"
     showgrid="false"
     fit-margin-top="0"
     fit-margin-left="0"
     fit-margin-right="0"
     fit-margin-bottom="0"
     inkscape:window-width="731"
     inkscape:window-height="421"
     inkscape:window-x="1185"
     inkscape:window-y="483"
     inkscape:window-maximized="0" />
  <metadata
     id="metadata26474">
    <rdf:RDF>
      <cc:Work
         rdf:about="">
        <dc:format>image/svg+xml</dc:format>
        <dc:type
           rdf:resource="http://purl.org/dc/dcmitype/StillImage" />
      </cc:Work>
    </rdf:RDF>
  </metadata>
  <g
     inkscape:label="Layer 1"
     inkscape:groupmode="layer"
     id="layer1"
     transform="translate(-364.99998,-522.36225)">
    <path
       inkscape:connector-curvature="0"
       id="path10352"
       style="fill:#000000;fill-opacity:1;fill-rule:nonzero;stroke:none"
       d="m 374.99837,524.85637 c -4.14113,0 -7.49879,3.35763 -7.49879,7.51888 0,4.1325 3.35766,7.49012 7.49879,7.49012 4.14111,0 7.50165,-3.35762 7.50165,-7.49012 0,-4.16125 -3.36054,-7.51888 -7.50165,-7.51888 z m 0,2.06625 c 3.00755,0 5.45261,2.43938 5.45261,5.45263 0,3.01325 -2.44506,5.45262 -5.45261,5.45262 -3.00755,0 -5.45549,-2.43937 -5.45549,-5.45262 0,-3.01325 2.44794,-5.45263 5.45549,-5.45263" />
    <path
       inkscape:connector-curvature="0"
       id="path10354"
       style="fill:#000000;fill-opacity:1;fill-rule:nonzero;stroke:none"
       d="m 376.24959,533.00662 c 0,0.34438 -0.28123,0.60263 -0.62561,0.60263 -0.34725,0 -0.62561,-0.25825 -0.62561,-0.60263 l 0,-3.7595 c 0,-0.34437 0.27836,-0.63137 0.62561,-0.63137 0.34438,0 0.62561,0.287 0.62561,0.63137 l 0,3.7595" />
    <path
       inkscape:connector-curvature="0"
       id="path10356"
       style="fill:#000000;fill-opacity:1;fill-rule:nonzero;stroke:none"
       d="m 376.24959,533.00662 c 0,0.34438 -0.28123,0.60263 -0.62561,0.60263 l -2.4996,0 c -0.34724,0 -0.62561,-0.25825 -0.62561,-0.60263 0,-0.37312 0.27837,-0.63137 0.62561,-0.63137 l 2.4996,0 c 0.34438,0 0.62561,0.25825 0.62561,0.63137" />
    <path
       inkscape:connector-curvature="0"
       id="path10358"
       style="fill:#000000;fill-opacity:1;fill-rule:nonzero;stroke:none"
       d="m 371.86742,524.48325 c -0.45918,-0.5165 -1.1221,-0.86088 -1.86825,-0.86088 -1.38036,0 -2.49959,1.11925 -2.49959,2.49675 0,0.54525 0.1808,1.06175 0.47925,1.4635 0.95278,-1.3775 2.30445,-2.468 3.88859,-3.09937" />
    <path
       inkscape:connector-curvature="0"
       id="path10360"
       style="fill:#000000;fill-opacity:1;fill-rule:nonzero;stroke:none"
       d="m 382.01503,527.58262 c 0.30133,-0.40175 0.48499,-0.91825 0.48499,-1.4635 0,-1.3775 -1.12209,-2.49675 -2.50246,-2.49675 -0.74615,0 -1.41194,0.34438 -1.86824,0.86088 1.58412,0.63137 2.9358,1.72187 3.88571,3.09937" />
    <path
       inkscape:connector-curvature="0"
       id="path10362"
       style="fill:#000000;fill-opacity:1;fill-rule:nonzero;stroke:none"
       d="m 368.74221,538.11487 -0.87817,0.86088 c -0.48786,0.48787 -0.48786,1.2915 0,1.77925 0.48787,0.48787 1.27993,0.48787 1.7678,0 l 1.06469,-1.06175 c -0.72605,-0.4305 -1.38324,-0.97575 -1.95432,-1.57838" />
    <path
       inkscape:connector-curvature="0"
       id="path10364"
       style="fill:#000000;fill-opacity:1;fill-rule:nonzero;stroke:none"
       d="m 381.25166,538.11487 c -0.56822,0.60263 -1.2254,1.14788 -1.95433,1.57838 l 1.06756,1.06175 c 0.48787,0.48787 1.27993,0.48787 1.7678,0 0.48787,-0.48775 0.48787,-1.29138 0,-1.77925 l -0.88103,-0.86088" />
  </g>
</svg>
