<?xml version="1.0" encoding="UTF-8" standalone="no"?>
<svg
   xmlns:dc="http://purl.org/dc/elements/1.1/"
   xmlns:cc="http://creativecommons.org/ns#"
   xmlns:rdf="http://www.w3.org/1999/02/22-rdf-syntax-ns#"
   xmlns:svg="http://www.w3.org/2000/svg"
   xmlns="http://www.w3.org/2000/svg"
   xmlns:sodipodi="http://sodipodi.sourceforge.net/DTD/sodipodi-0.dtd"
   xmlns:inkscape="http://www.inkscape.org/namespaces/inkscape"
   version="1.2"
   width="39"
   height="39"
   viewBox="0 0 39 39"
   overflow="inherit"
   id="svg2"
   inkscape:version="0.48.4 r9939"
   sodipodi:docname="volume-control-telephone.svg"
   style="overflow:inherit">
  <metadata
     id="metadata10">
    <rdf:RDF>
      <cc:Work
         rdf:about="">
        <dc:format>image/svg+xml</dc:format>
        <dc:type
           rdf:resource="http://purl.org/dc/dcmitype/StillImage" />
        <dc:title></dc:title>
      </cc:Work>
    </rdf:RDF>
  </metadata>
  <defs
     id="defs8" />
  <sodipodi:namedview
     pagecolor="#ffffff"
     bordercolor="#666666"
     borderopacity="1"
     objecttolerance="10"
     gridtolerance="10"
     guidetolerance="10"
     inkscape:pageopacity="0"
     inkscape:pageshadow="2"
     inkscape:window-width="640"
     inkscape:window-height="480"
     id="namedview6"
     showgrid="false"
     fit-margin-top="0"
     fit-margin-left="12.5"
     fit-margin-right="12.5"
     fit-margin-bottom="0"
     inkscape:zoom="4.72"
     inkscape:cx="14.545036"
     inkscape:cy="15.878225"
     inkscape:window-x="0"
     inkscape:window-y="35"
     inkscape:window-maximized="0"
     inkscape:current-layer="svg2" />
  <path
     d="m 22.5,10.999999 2.682,0 c 0.804,0 1.318,-1.1819995 1.318,-1.9799995 l 0,-7.3846775 C 26.5,0.836322 25.986,0 25.182,0 L 22.5,0 z M 22.5,27 l 2.682,0 c 0.804,0 1.318,0.927999 1.318,1.728 l 0,8.442 C 26.5,37.963999 25.986,39 25.182,39 L 22.5,39 z m -3.54,-8 c -0.023,-7.717 1.428,-8 2.255,-8 l 0.285,0 0,-11 -0.342,0 C 19.685,0 12.5,2.421 12.5,19.499 12.5,36.578 19.685,39 21.158,39 l 0.342,0 0,-12 -0.285,0 c -0.827,0 -2.233,-0.287 -2.255,-8 z"
     id="path4"
     inkscape:connector-curvature="0"
     sodipodi:nodetypes="csssscccsssscccsccsssccsc" />
</svg>
