<?xml version="1.0" encoding="UTF-8" standalone="no"?>
<!-- Created with Inkscape (http://www.inkscape.org/) -->

<svg
   xmlns:dc="http://purl.org/dc/elements/1.1/"
   xmlns:cc="http://creativecommons.org/ns#"
   xmlns:rdf="http://www.w3.org/1999/02/22-rdf-syntax-ns#"
   xmlns:svg="http://www.w3.org/2000/svg"
   xmlns="http://www.w3.org/2000/svg"
   xmlns:sodipodi="http://sodipodi.sourceforge.net/DTD/sodipodi-0.dtd"
   xmlns:inkscape="http://www.inkscape.org/namespaces/inkscape"
   width="32"
   height="32"
   id="svg3905"
   version="1.1"
   inkscape:version="0.48.4 r9939"
   sodipodi:docname="route.svg">
  <defs
     id="defs3907">
    <marker
       inkscape:stockid="Arrow2Lend"
       orient="auto"
       refY="0.0"
       refX="0.0"
       id="Arrow2Lend"
       style="overflow:visible;">
      <path
         id="path4448"
         style="fill-rule:evenodd;stroke-width:0.62500000;stroke-linejoin:round;"
         d="M 8.7185878,4.0337352 L -2.2072895,0.016013256 L 8.7185884,-4.0017078 C 6.9730900,-1.6296469 6.9831476,1.6157441 8.7185878,4.0337352 z "
         transform="scale(1.1) rotate(180) translate(1,0)" />
    </marker>
    <marker
       inkscape:stockid="DotL"
       orient="auto"
       refY="0.0"
       refX="0.0"
       id="DotL"
       style="overflow:visible">
      <path
         id="path4488"
         d="M -2.5,-1.0 C -2.5,1.7600000 -4.7400000,4.0 -7.5,4.0 C -10.260000,4.0 -12.5,1.7600000 -12.5,-1.0 C -12.5,-3.7600000 -10.260000,-6.0 -7.5,-6.0 C -4.7400000,-6.0 -2.5,-3.7600000 -2.5,-1.0 z "
         style="fill-rule:evenodd;stroke:#000000;stroke-width:1.0pt"
         transform="scale(0.8) translate(7.4, 1)" />
    </marker>
    <marker
       inkscape:stockid="Arrow2Mend"
       orient="auto"
       refY="0.0"
       refX="0.0"
       id="Arrow2Mend"
       style="overflow:visible;">
      <path
         id="path4454"
         style="fill-rule:evenodd;stroke-width:0.62500000;stroke-linejoin:round;"
         d="M 8.7185878,4.0337352 L -2.2072895,0.016013256 L 8.7185884,-4.0017078 C 6.9730900,-1.6296469 6.9831476,1.6157441 8.7185878,4.0337352 z "
         transform="scale(0.6) rotate(180) translate(0,0)" />
    </marker>
    <marker
       inkscape:stockid="Arrow1Mend"
       orient="auto"
       refY="0.0"
       refX="0.0"
       id="Arrow1Mend"
       style="overflow:visible;">
      <path
         id="path4436"
         d="M 0.0,0.0 L 5.0,-5.0 L -12.5,0.0 L 5.0,5.0 L 0.0,0.0 z "
         style="fill-rule:evenodd;stroke:#000000;stroke-width:1.0pt;"
         transform="scale(0.4) rotate(180) translate(10,0)" />
    </marker>
    <marker
       inkscape:stockid="Arrow1Lend"
       orient="auto"
       refY="0.0"
       refX="0.0"
       id="Arrow1Lend"
       style="overflow:visible;">
      <path
         id="path4430"
         d="M 0.0,0.0 L 5.0,-5.0 L -12.5,0.0 L 5.0,5.0 L 0.0,0.0 z "
         style="fill-rule:evenodd;stroke:#000000;stroke-width:1.0pt;"
         transform="scale(0.8) rotate(180) translate(12.5,0)" />
    </marker>
    <marker
       inkscape:stockid="Tail"
       orient="auto"
       refY="0.0"
       refX="0.0"
       id="Tail"
       style="overflow:visible">
      <g
         id="g4463"
         transform="scale(-1.2)">
        <path
           id="path4465"
           d="M -3.8048674,-3.9585227 L 0.54352094,0"
           style="fill:none;fill-rule:evenodd;stroke:#000000;stroke-width:0.8;stroke-linecap:round" />
        <path
           id="path4467"
           d="M -1.2866832,-3.9585227 L 3.0617053,0"
           style="fill:none;fill-rule:evenodd;stroke:#000000;stroke-width:0.8;stroke-linecap:round" />
        <path
           id="path4469"
           d="M 1.3053582,-3.9585227 L 5.6537466,0"
           style="fill:none;fill-rule:evenodd;stroke:#000000;stroke-width:0.8;stroke-linecap:round" />
        <path
           id="path4471"
           d="M -3.8048674,4.1775838 L 0.54352094,0.21974226"
           style="fill:none;fill-rule:evenodd;stroke:#000000;stroke-width:0.8;stroke-linecap:round" />
        <path
           id="path4473"
           d="M -1.2866832,4.1775838 L 3.0617053,0.21974226"
           style="fill:none;fill-rule:evenodd;stroke:#000000;stroke-width:0.8;stroke-linecap:round" />
        <path
           id="path4475"
           d="M 1.3053582,4.1775838 L 5.6537466,0.21974226"
           style="fill:none;fill-rule:evenodd;stroke:#000000;stroke-width:0.8;stroke-linecap:round" />
      </g>
    </marker>
    <marker
       inkscape:stockid="Torso"
       orient="auto"
       refY="0.0"
       refX="0.0"
       id="Torso"
       style="overflow:visible">
      <g
         id="g4639"
         transform="scale(0.7)">
        <path
           id="path4641"
           d="M -4.7792281,-3.2395420 C -2.4288541,-2.8736027 0.52103922,-1.3019943 0.25792722,0.38794346 C -0.0051877922,2.0778819 -2.2126741,2.6176539 -4.5630471,2.2517169 C -6.9134221,1.8857769 -8.5210350,0.75201414 -8.2579220,-0.93792336 C -7.9948090,-2.6278615 -7.1296041,-3.6054813 -4.7792281,-3.2395420 z "
           style="fill:none;fill-opacity:0.75000000;fill-rule:evenodd;stroke:#000000;stroke-width:1.2500000" />
        <path
           id="path4643"
           d="M 4.4598789,0.088665736 C -2.5564571,-4.3783320 5.2248769,-3.9061806 -0.84829578,-8.7197331"
           style="fill:none;fill-opacity:0.75000000;fill-rule:evenodd;stroke:#000000;stroke-width:1.0000000pt" />
        <path
           id="path4645"
           d="M 4.9298719,0.057520736 C -1.3872731,1.7494689 1.8027579,5.4782079 -4.9448731,7.5462725"
           style="fill:none;fill-opacity:0.75000000;fill-rule:evenodd;stroke:#000000;stroke-width:1.0000000pt" />
        <rect
           id="rect4647"
           transform="matrix(0.527536,-0.849533,0.887668,0.460484,0,0)"
           y="-1.7408575"
           x="-10.391706"
           height="2.7608147"
           width="2.6366582"
           style="fill-rule:evenodd;stroke-width:1.0000000pt" />
        <rect
           id="rect4649"
           transform="matrix(0.671205,-0.741272,0.790802,0.612072,0,0)"
           y="-7.9629307"
           x="4.9587269"
           height="2.8614161"
           width="2.7327356"
           style="fill-rule:evenodd;stroke-width:1.0000000pt" />
        <path
           id="path4651"
           transform="matrix(0,-1.109517,1.109517,0,25.96648,19.71619)"
           d="M 16.779951 -28.685045 A 0.60731727 0.60731727 0 1 0 15.565317,-28.685045 A 0.60731727 0.60731727 0 1 0 16.779951 -28.685045 z"
           style="fill:#ff0000;fill-opacity:0.75000000;fill-rule:evenodd;stroke:#000000;stroke-width:1.0000000pt" />
        <path
           id="path4653"
           transform="matrix(0,-1.109517,1.109517,0,26.82450,16.99126)"
           d="M 16.779951 -28.685045 A 0.60731727 0.60731727 0 1 0 15.565317,-28.685045 A 0.60731727 0.60731727 0 1 0 16.779951 -28.685045 z"
           style="fill:#ff0000;fill-opacity:0.75000000;fill-rule:evenodd;stroke:#000000;stroke-width:1.0000000pt" />
      </g>
    </marker>
    <marker
       inkscape:stockid="Legs"
       orient="auto"
       refY="0.0"
       refX="0.0"
       id="Legs"
       style="overflow:visible">
      <g
         id="g4626"
         transform="scale(-0.7)">
        <g
           id="g4628"
           transform="matrix(0,-1.000000,-1.000000,0,20.70862,21.31391)">
          <path
             id="path4630"
             d="M 21.221250,20.675360 C 14.311099,25.396517 18.766725,27.282204 15.380179,34.118595"
             style="fill:none;fill-opacity:0.75000000;fill-rule:evenodd;stroke:#000000;stroke-width:1.0000000pt" />
          <path
             id="path4632"
             d="M 21.398110,20.548120 C 20.037601,28.895644 24.934182,29.318060 25.903151,34.373078"
             style="fill:none;fill-opacity:0.75000000;fill-rule:evenodd;stroke:#000000;stroke-width:1.0000000pt" />
        </g>
        <path
           id="path4634"
           d="M -14.090070,-6.7318716 L -15.012238,-2.6884886 L -11.049487,-3.9115586 L -14.090070,-6.7318716 z "
           style="fill:#030300;fill-rule:evenodd;stroke-width:1.0000000pt" />
        <path
           id="path4636"
           d="M -15.215679,4.5567534 L -13.341552,8.2563664 L -11.074678,4.7835114 L -15.215679,4.5567534 z "
           style="fill:#030300;fill-rule:evenodd;stroke-width:1.0000000pt" />
      </g>
    </marker>
    <marker
       inkscape:stockid="DotM"
       orient="auto"
       refY="0.0"
       refX="0.0"
       id="DotM"
       style="overflow:visible">
      <path
         id="path4491"
         d="M -2.5,-1.0 C -2.5,1.7600000 -4.7400000,4.0 -7.5,4.0 C -10.260000,4.0 -12.5,1.7600000 -12.5,-1.0 C -12.5,-3.7600000 -10.260000,-6.0 -7.5,-6.0 C -4.7400000,-6.0 -2.5,-3.7600000 -2.5,-1.0 z "
         style="fill-rule:evenodd;stroke:#000000;stroke-width:1.0pt"
         transform="scale(0.4) translate(7.4, 1)" />
    </marker>
  </defs>
  <sodipodi:namedview
     id="base"
     pagecolor="#ffffff"
     bordercolor="#666666"
     borderopacity="1.0"
     inkscape:pageopacity="0.0"
     inkscape:pageshadow="2"
     inkscape:zoom="5.6"
     inkscape:cx="18.089796"
     inkscape:cy="10.253061"
     inkscape:document-units="px"
     inkscape:current-layer="layer1"
     showgrid="false"
     inkscape:window-width="731"
     inkscape:window-height="666"
     inkscape:window-x="1185"
     inkscape:window-y="35"
     inkscape:window-maximized="0" />
  <metadata
     id="metadata3910">
    <rdf:RDF>
      <cc:Work
         rdf:about="">
        <dc:format>image/svg+xml</dc:format>
        <dc:type
           rdf:resource="http://purl.org/dc/dcmitype/StillImage" />
        <dc:title></dc:title>
      </cc:Work>
    </rdf:RDF>
  </metadata>
  <g
     inkscape:label="Layer 1"
     inkscape:groupmode="layer"
     id="layer1"
     transform="translate(0,-1020.3622)">
    <path
       style="fill:none;stroke:#000000;stroke-width:2;stroke-linecap:butt;stroke-linejoin:miter;stroke-miterlimit:4;stroke-opacity:1;stroke-dasharray:none;marker-start:url(#DotM);marker-mid:none;marker-end:url(#Arrow2Mend)"
       d="M 5,27 C 5,8.2500004 28,4 28,4"
       id="path3913"
       inkscape:connector-curvature="0"
       transform="translate(0,1020.3622)"
       sodipodi:nodetypes="cc" />
  </g>
</svg>
