<?xml version="1.0" encoding="UTF-8" standalone="no"?>
<!-- Generator: Adobe Illustrator 18.1.1, SVG Export Plug-In . SVG Version: 6.00 Build 0)  -->

<svg
   xmlns:dc="http://purl.org/dc/elements/1.1/"
   xmlns:cc="http://creativecommons.org/ns#"
   xmlns:rdf="http://www.w3.org/1999/02/22-rdf-syntax-ns#"
   xmlns:svg="http://www.w3.org/2000/svg"
   xmlns="http://www.w3.org/2000/svg"
   xmlns:sodipodi="http://sodipodi.sourceforge.net/DTD/sodipodi-0.dtd"
   xmlns:inkscape="http://www.inkscape.org/namespaces/inkscape"
   version="1.1"
   id="Capa_1"
   x="0px"
   y="0px"
   viewBox="0 0 15.690001 20.750999"
   xml:space="preserve"
   inkscape:version="0.48.4 r9939"
   width="100%"
   height="100%"
   sodipodi:docname="drink110.svg"><metadata
     id="metadata4046"><rdf:RDF><cc:Work
         rdf:about=""><dc:format>image/svg+xml</dc:format><dc:type
           rdf:resource="http://purl.org/dc/dcmitype/StillImage" /><dc:title></dc:title></cc:Work></rdf:RDF></metadata><defs
     id="defs4044" /><sodipodi:namedview
     pagecolor="#ffffff"
     bordercolor="#666666"
     borderopacity="1"
     objecttolerance="10"
     gridtolerance="10"
     guidetolerance="10"
     inkscape:pageopacity="0"
     inkscape:pageshadow="2"
     inkscape:window-width="731"
     inkscape:window-height="480"
     id="namedview4042"
     showgrid="false"
     inkscape:zoom="11.372946"
     inkscape:cx="7.8455001"
     inkscape:cy="10.375499"
     inkscape:window-x="207"
     inkscape:window-y="195"
     inkscape:window-maximized="0"
     inkscape:current-layer="Capa_1"
     fit-margin-top="0"
     fit-margin-left="0"
     fit-margin-right="0"
     fit-margin-bottom="0" /><g
     id="g4008"
     style="fill:#000000;fill-opacity:0.1254902"
     transform="translate(-2.53,0)"><path
       style="fill:#000000;fill-opacity:0.1254902"
       d="M 9.962,10.465 C 9.962,9.61 9.751,8.783 9.346,8.073 L 9.25,7.905 H 3.24 L 3.146,8.073 C 2.742,8.782 2.53,9.61 2.53,10.465 c 0,2.181 1.388,3.988 3.189,4.287 v 5.093 c -1.039,0.042 -1.813,0.2 -1.813,0.387 0,0.222 1.055,0.4 2.357,0.4 1.303,0 2.36,-0.178 2.36,-0.4 0,-0.187 -0.774,-0.345 -1.813,-0.387 V 14.748 C 8.593,14.43 9.962,12.63 9.962,10.465 z m -3.717,3.666 c -1.682,0 -3.052,-1.644 -3.052,-3.668 0,-0.674 0.151,-1.325 0.44,-1.896 H 8.858 C 9.146,9.138 9.299,9.79 9.299,10.463 9.3,12.488 7.928,14.131 6.245,14.131 z M 16.325,2.292 H 13.682 V 0 h 2.643 v 2.292 z m 0,2.84 V 2.997 h -2.643 v 2.136 c -1.116,0.503 -1.896,1.625 -1.896,2.931 v 2.093 6.673 3.921 H 18.22 V 16.83 10.157 8.064 C 18.221,6.758 17.443,5.636 16.325,5.132 z m 1.327,12.384 h -5.241 v -6.288 h 5.241 v 6.288 z m -8.63,-6.982 c 0,0 -0.139,3.325 -2.732,3.325 -2.593,0 -2.943,-3.325 -2.943,-3.325 h 5.675 z"
       id="path4010"
       inkscape:connector-curvature="0" /></g><g
     id="g4012"
     transform="translate(-2.53,0)" /><g
     id="g4014"
     transform="translate(-2.53,0)" /><g
     id="g4016"
     transform="translate(-2.53,0)" /><g
     id="g4018"
     transform="translate(-2.53,0)" /><g
     id="g4020"
     transform="translate(-2.53,0)" /><g
     id="g4022"
     transform="translate(-2.53,0)" /><g
     id="g4024"
     transform="translate(-2.53,0)" /><g
     id="g4026"
     transform="translate(-2.53,0)" /><g
     id="g4028"
     transform="translate(-2.53,0)" /><g
     id="g4030"
     transform="translate(-2.53,0)" /><g
     id="g4032"
     transform="translate(-2.53,0)" /><g
     id="g4034"
     transform="translate(-2.53,0)" /><g
     id="g4036"
     transform="translate(-2.53,0)" /><g
     id="g4038"
     transform="translate(-2.53,0)" /><g
     id="g4040"
     transform="translate(-2.53,0)" /></svg>