<?xml version="1.0" encoding="UTF-8" standalone="no"?>
<!-- Generator: Adobe Illustrator 16.0.4, SVG Export Plug-In . SVG Version: 6.00 Build 0)  -->

<svg
   xmlns:dc="http://purl.org/dc/elements/1.1/"
   xmlns:cc="http://creativecommons.org/ns#"
   xmlns:rdf="http://www.w3.org/1999/02/22-rdf-syntax-ns#"
   xmlns:svg="http://www.w3.org/2000/svg"
   xmlns="http://www.w3.org/2000/svg"
   xmlns:sodipodi="http://sodipodi.sourceforge.net/DTD/sodipodi-0.dtd"
   xmlns:inkscape="http://www.inkscape.org/namespaces/inkscape"
   version="1.1"
   id="Capa_1"
   x="0px"
   y="0px"
   width="307.643px"
   height="472px"
   viewBox="0 0 307.643 472"
   enable-background="new 0 0 307.643 472"
   xml:space="preserve"
   inkscape:version="0.48.4 r9939"
   sodipodi:docname="hiking.svg"><metadata
     id="metadata15"><rdf:RDF><cc:Work
         rdf:about=""><dc:format>image/svg+xml</dc:format><dc:type
           rdf:resource="http://purl.org/dc/dcmitype/StillImage" /><dc:title></dc:title><cc:license
           rdf:resource="http://creativecommons.org/licenses/by/3.0/" /><dc:creator><cc:Agent><dc:title>Scott de Jonge</dc:title></cc:Agent></dc:creator><dc:contributor><cc:Agent><dc:title>Modified for SWG by Peter Copeland</dc:title></cc:Agent></dc:contributor><dc:publisher><cc:Agent><dc:title>http://www.flaticon.com/free-icon/hiking_10444</dc:title></cc:Agent></dc:publisher></cc:Work><cc:License
         rdf:about="http://creativecommons.org/licenses/by/3.0/"><cc:permits
           rdf:resource="http://creativecommons.org/ns#Reproduction" /><cc:permits
           rdf:resource="http://creativecommons.org/ns#Distribution" /><cc:requires
           rdf:resource="http://creativecommons.org/ns#Notice" /><cc:requires
           rdf:resource="http://creativecommons.org/ns#Attribution" /><cc:permits
           rdf:resource="http://creativecommons.org/ns#DerivativeWorks" /></cc:License></rdf:RDF></metadata><defs
     id="defs13" /><sodipodi:namedview
     pagecolor="#ffffff"
     bordercolor="#666666"
     borderopacity="1"
     objecttolerance="10"
     gridtolerance="10"
     guidetolerance="10"
     inkscape:pageopacity="0"
     inkscape:pageshadow="2"
     inkscape:window-width="732"
     inkscape:window-height="480"
     id="namedview11"
     showgrid="false"
     inkscape:zoom="0.5"
     inkscape:cx="153.8215"
     inkscape:cy="236"
     inkscape:window-x="0"
     inkscape:window-y="35"
     inkscape:window-maximized="0"
     inkscape:current-layer="Capa_1" /><g
     id="g2992"
     transform="matrix(-1,0,0,1,307.64318,0)"
     style="fill:#000000;fill-opacity:0.1254902"><path
       id="path3"
       d="m 144.143,75 c 10.334,0 19.167,-3.667 26.5,-11 7.334,-7.334 11,-16.167 11,-26.5 0,-10.335 -3.666,-19.168 -11,-26.5 -7.332,-7.333 -16.167,-11 -26.5,-11 -10.333,0 -19.333,3.667 -27,11 -7.667,7.333 -11.5,16.167 -11.5,26.5 0,10.333 3.833,19.167 11.5,26.5 7.667,7.333 16.667,11 27,11 z"
       inkscape:connector-curvature="0"
       style="fill:#000000;fill-opacity:0.1254902" /><path
       id="path5"
       d="m 79.643,81 c 2,-7.336 -0.667,-11.67 -8,-13 l -31,-8 c -7.333,-1.333 -12,1.334 -14,8 l -26,108 c -2,6.667 0.667,10.667 8,12 l 31,8 c 7.333,1.333 12,-1.333 14,-8 l 26,-107 z"
       inkscape:connector-curvature="0"
       style="fill:#000000;fill-opacity:0.1254902" /><path
       id="path7"
       d="m 225.643,462 v 1 c 0,5.333 3,8 9,8 5.334,0 8.334,-2.333 9,-7 l 64,-337 v -1 c 0,-5.333 -3,-8 -9,-8 -4.666,0 -7.666,2.333 -9,7 l -64,337 z"
       inkscape:connector-curvature="0"
       style="fill:#000000;fill-opacity:0.1254902" /><path
       id="path9"
       d="m 13.643,440 v 5 c 0,7.333 2.5,13.667 7.5,19 5,5.333 11.167,8 18.5,8 13.333,0 22,-6.333 26,-19 l 46,-185 44,184 c 1.334,5.333 4.334,10 9,14 4.668,4 10.334,6 17,6 7.334,0 13.5,-2.667 18.5,-8 5,-5.333 7.5,-11.667 7.5,-19 v -5 l -60,-245 5,-21 4,17 c 0.668,3.333 2.168,6 4.5,8 2.334,2 4.5,3 6.5,3 l 3,1 62,15 h 3 c 5.334,0 9.834,-1.667 13.5,-5 3.668,-3.333 5.5,-7.333 5.5,-12 0,-9.333 -4.666,-15.333 -14,-18 l -54,-13 -15,-58 c -2,-9.335 -6.166,-16.668 -12.5,-22 -6.333,-5.333 -12.167,-8.333 -17.5,-9 l -9,-1 c -8.667,0 -16.333,2.5 -23,7.5 -6.667,5 -11,10.167 -13,15.5 l -2,8 -81,329 z"
       inkscape:connector-curvature="0"
       style="fill:#000000;fill-opacity:0.1254902" /></g></svg>