<?xml version="1.0" encoding="UTF-8" standalone="no"?>
<!-- Generator: Adobe Illustrator 18.1.1, SVG Export Plug-In . SVG Version: 6.00 Build 0)  -->

<svg
   xmlns:dc="http://purl.org/dc/elements/1.1/"
   xmlns:cc="http://creativecommons.org/ns#"
   xmlns:rdf="http://www.w3.org/1999/02/22-rdf-syntax-ns#"
   xmlns:svg="http://www.w3.org/2000/svg"
   xmlns="http://www.w3.org/2000/svg"
   xmlns:sodipodi="http://sodipodi.sourceforge.net/DTD/sodipodi-0.dtd"
   xmlns:inkscape="http://www.inkscape.org/namespaces/inkscape"
   version="1.1"
   id="Capa_1"
   x="0px"
   y="0px"
   viewBox="0 0 512 312"
   xml:space="preserve"
   inkscape:version="0.48.4 r9939"
   width="100%"
   height="100%"
   sodipodi:docname="sleeping.svg"><metadata
     id="metadata4709"><rdf:RDF><cc:Work
         rdf:about=""><dc:format>image/svg+xml</dc:format><dc:type
           rdf:resource="http://purl.org/dc/dcmitype/StillImage" /><dc:title></dc:title></cc:Work></rdf:RDF></metadata><defs
     id="defs4707" /><sodipodi:namedview
     pagecolor="#ffffff"
     bordercolor="#666666"
     borderopacity="1"
     objecttolerance="10"
     gridtolerance="10"
     guidetolerance="10"
     inkscape:pageopacity="0"
     inkscape:pageshadow="2"
     inkscape:window-width="731"
     inkscape:window-height="480"
     id="namedview4705"
     showgrid="false"
     inkscape:zoom="0.4609375"
     inkscape:cx="256"
     inkscape:cy="156"
     inkscape:window-x="0"
     inkscape:window-y="35"
     inkscape:window-maximized="0"
     inkscape:current-layer="Capa_1"
     fit-margin-top="0"
     fit-margin-left="0"
     fit-margin-right="0"
     fit-margin-bottom="0" /><g
     id="g4663"
     style="fill:#000000;fill-opacity:0.1254902"
     transform="translate(0,-100)"><g
       id="g4665"
       style="fill:#000000;fill-opacity:0.1254902"><g
         id="g4667"
         style="fill:#000000;fill-opacity:0.1254902"><path
           style="fill:#000000;fill-opacity:0.1254902"
           d="m 471,330 v 82 h 41 V 289 H 41 V 121 C 41,115.664 39,110.831 35,106.5 31,102.167 26.167,100 20.5,100 14.833,100 10,102.167 6,106.5 2,110.833 0,115.667 0,121 v 291 h 41 v -82 h 430 z"
           id="path4669"
           inkscape:connector-curvature="0" /><path
           style="fill:#000000;fill-opacity:0.1254902"
           d="m 105.5,205 c 10.333,0 19.333,-3.667 27,-11 7.667,-7.334 11.5,-16.168 11.5,-26.5 0,-10.335 -3.833,-19.168 -11.5,-26.5 -7.667,-7.333 -16.667,-11 -27,-11 -10.333,0 -19.167,3.667 -26.5,11 -7.333,7.333 -11,16.167 -11,26.5 0,10.333 3.667,19.167 11,26.5 7.333,7.333 16.167,11 26.5,11 z"
           id="path4671"
           inkscape:connector-curvature="0" /><path
           style="fill:#000000;fill-opacity:0.1254902"
           d="m 512,258 v -50 c 0,-8 -2.833,-14.5 -8.5,-19.5 -5.67,-5 -12.837,-8.167 -21.5,-9.5 L 185,150 h -2 c -5.333,0 -9.833,1.833 -13.5,5.5 -3.667,3.667 -5.5,8.167 -5.5,13.5 v 58 H 88 c -12.667,0 -19,5.167 -19,15.5 0,10.333 6.333,15.5 19,15.5 h 424 z"
           id="path4673"
           inkscape:connector-curvature="0" /></g></g></g><g
     id="g4675"
     transform="translate(0,-100)" /><g
     id="g4677"
     transform="translate(0,-100)" /><g
     id="g4679"
     transform="translate(0,-100)" /><g
     id="g4681"
     transform="translate(0,-100)" /><g
     id="g4683"
     transform="translate(0,-100)" /><g
     id="g4685"
     transform="translate(0,-100)" /><g
     id="g4687"
     transform="translate(0,-100)" /><g
     id="g4689"
     transform="translate(0,-100)" /><g
     id="g4691"
     transform="translate(0,-100)" /><g
     id="g4693"
     transform="translate(0,-100)" /><g
     id="g4695"
     transform="translate(0,-100)" /><g
     id="g4697"
     transform="translate(0,-100)" /><g
     id="g4699"
     transform="translate(0,-100)" /><g
     id="g4701"
     transform="translate(0,-100)" /><g
     id="g4703"
     transform="translate(0,-100)" /></svg>